<?xml version="1.0" encoding="UTF-8" standalone="no"?>
<svg
   width="16"
   height="16"
   version="1.1"
   id="svg2"
   sodipodi:docname="audio-volume-medium-symbolic.svg"
   inkscape:version="1.3.2 (091e20ef0f, 2023-11-25, custom)"
   xmlns:inkscape="http://www.inkscape.org/namespaces/inkscape"
   xmlns:sodipodi="http://sodipodi.sourceforge.net/DTD/sodipodi-0.dtd"
   xmlns="http://www.w3.org/2000/svg"
   xmlns:svg="http://www.w3.org/2000/svg"
   xmlns:rdf="http://www.w3.org/1999/02/22-rdf-syntax-ns#"
   xmlns:cc="http://creativecommons.org/ns#"
   xmlns:dc="http://purl.org/dc/elements/1.1/">
  <defs
     id="defs2">
    <style
       id="current-color-scheme"
       type="text/css">
          .ColorScheme-Text {
          color:#181612;
          }
          .ColorScheme-Background{
          color:#d4d0c8;
          }
          .ColorScheme-Highlight{
          color:#3a6ea5;
          }
          .ColorScheme-ViewText {
          color:#181612;
          }
          .ColorScheme-ViewBackground{
          color:#ffffff;
          }
          .ColorScheme-ViewHover {
          color:#a3c6ee;
          }
          .ColorScheme-ViewFocus{
          color:#fafafa;
          }
          .ColorScheme-ButtonText {
          color:#181612;
          }
          .ColorScheme-ButtonBackground{
          color:#d4d0c8;
          }
          .ColorScheme-ButtonHover {
          color:#84827d;
          }
          .ColorScheme-ButtonFocus{
          color:#363e41;
          }
      </style>
  </defs>
  <sodipodi:namedview
     id="namedview2"
     pagecolor="#ffffff"
     bordercolor="#111111"
     borderopacity="1"
     inkscape:showpageshadow="0"
     inkscape:pageopacity="0"
     inkscape:pagecheckerboard="1"
     inkscape:deskcolor="#d1d1d1"
     inkscape:zoom="36.375"
     inkscape:cx="7.0515464"
     inkscape:cy="11.216495"
     inkscape:current-layer="svg2" />
  <metadata
     id="metadata1">
    <rdf:RDF>
      <cc:Work
         rdf:about="">
        <dc:format>image/svg+xml</dc:format>
        <dc:type
           rdf:resource="http://purl.org/dc/dcmitype/StillImage" />
        <dc:title />
      </cc:Work>
    </rdf:RDF>
  </metadata>
  <g
     fill="#363636"
     stroke-linecap="round"
     stroke-linejoin="round"
     stroke-width="2.22333"
     style="paint-order:stroke fill markers"
     aria-label="î§"
     id="g1"
     transform="matrix(0.9,0,0,0.9,0.6503685,0.8)">
    <path
       d="m 10.959,3.0444 c 0.32829,0.32829 0.61749,0.68522 0.86761,1.0708 0.25533,0.38039 0.46898,0.78163 0.64094,1.2037 0.17717,0.42208 0.31005,0.85978 0.39863,1.3131 0.09379,0.45335 0.14069,0.90931 0.14069,1.3679 0,0.46377 -0.0469,0.92233 -0.14069,1.3757 -0.08859,0.44813 -0.22146,0.88323 -0.39863,1.3053 -0.17196,0.42208 -0.38561,0.82591 -0.64094,1.2115 -0.25012,0.38039 -0.53932,0.73473 -0.86761,1.063 l -0.71128,-0.71128 c 0.56277,-0.56277 0.99527,-1.2115 1.2975,-1.9463 0.30744,-0.73473 0.46116,-1.5007 0.46116,-2.298 0,-0.7973 -0.15372,-1.5633 -0.46116,-2.298 -0.30223,-0.73473 -0.73473,-1.3835 -1.2975,-1.9463 z m -2.126,2.126 c 0.37518,0.37518 0.66438,0.80768 0.86761,1.2975 0.20323,0.48982 0.30484,1.0005 0.30484,1.532 0,0.53151 -0.10161,1.0422 -0.30484,1.532 C 9.49738,10.02172 9.20818,10.45422 8.833,10.8294 L 8.12953,10.12593 C 8.41092,9.84454 8.62717,9.52147 8.77828,9.15671 8.92939,8.78674 9.00495,8.40114 9.00495,7.99991 9.00495,7.59867 8.929393,7.21567 8.77828,6.85091 8.62717,6.48094 8.41092,6.15526 8.12953,5.87387 Z M 5.2922,1.997 H 6.00348 V 14.003 H 5.2922 L 2.2907,11.0015 H 5e-4 V 4.9986 H 2.2907 Z M 5.003,3.7088 2.7128,5.999 H 1.001 v 4.0019 h 1.7118 l 2.2902,2.2902 z"
       fill="currentColor"
       class="ColorScheme-Text"
       stroke-width="2.22333"
       id="path1" />
  </g>
  <path
     d="m 12.419841,1.63362 c 0.422083,0.422082 0.794926,0.879345 1.118521,1.37178 0.328284,0.492426 0.60498,1.01061 0.830087,1.55466 0.225109,0.539325 0.393939,1.0998 0.506494,1.68129 0.117243,0.576846 0.175868,1.16307 0.175868,1.75869 0,0.595602 -0.05862,1.18413 -0.175869,1.76571 -0.112554,0.576846 -0.281384,1.13724 -0.506493,1.68129 -0.225108,0.539325 -0.501804,1.05525 -0.830088,1.54764 -0.323595,0.492426 -0.696429,0.94968 -1.11852,1.37178 l -0.633122,-0.633123 c 0.379871,-0.379872 0.715185,-0.790245 1.005929,-1.23111 0.295461,-0.445527 0.544014,-0.91215 0.745677,-1.39986 0.201663,-0.48771 0.354078,-0.99189 0.457254,-1.51245 0.107865,-0.525258 0.161802,-1.05525 0.161802,-1.58985 0,-0.534636 -0.05394,-1.06227 -0.161802,-1.58283 C 13.892403,5.891979 13.739988,5.385477 13.538325,4.897767 13.336663,4.41003 13.088109,3.945747 12.792648,3.504927 12.501885,3.0594 12.166572,2.646687 11.786719,2.266797 Z"
     fill="currentColor"
     class="ColorScheme-Text"
     opacity="0.35"
     stroke-width="1.8009"
     style="paint-order:stroke fill markers"
     id="path2" />
</svg>
