<?xml version="1.0" encoding="UTF-8" standalone="no"?>
<svg
   width="16"
   height="16"
   version="1.1"
   id="svg2"
   sodipodi:docname="audio-volume-low-symbolic.svg"
   inkscape:version="1.3.2 (091e20ef0f, 2023-11-25, custom)"
   xmlns:inkscape="http://www.inkscape.org/namespaces/inkscape"
   xmlns:sodipodi="http://sodipodi.sourceforge.net/DTD/sodipodi-0.dtd"
   xmlns="http://www.w3.org/2000/svg"
   xmlns:svg="http://www.w3.org/2000/svg"
   xmlns:rdf="http://www.w3.org/1999/02/22-rdf-syntax-ns#"
   xmlns:cc="http://creativecommons.org/ns#"
   xmlns:dc="http://purl.org/dc/elements/1.1/">
  <defs
     id="defs2">
    <style
       id="current-color-scheme"
       type="text/css">
          .ColorScheme-Text {
          color:#181612;
          }
          .ColorScheme-Background{
          color:#d4d0c8;
          }
          .ColorScheme-Highlight{
          color:#3a6ea5;
          }
          .ColorScheme-ViewText {
          color:#181612;
          }
          .ColorScheme-ViewBackground{
          color:#ffffff;
          }
          .ColorScheme-ViewHover {
          color:#a3c6ee;
          }
          .ColorScheme-ViewFocus{
          color:#fafafa;
          }
          .ColorScheme-ButtonText {
          color:#181612;
          }
          .ColorScheme-ButtonBackground{
          color:#d4d0c8;
          }
          .ColorScheme-ButtonHover {
          color:#84827d;
          }
          .ColorScheme-ButtonFocus{
          color:#363e41;
          }
      </style>
  </defs>
  <sodipodi:namedview
     id="namedview2"
     pagecolor="#ffffff"
     bordercolor="#111111"
     borderopacity="1"
     inkscape:showpageshadow="0"
     inkscape:pageopacity="0"
     inkscape:pagecheckerboard="1"
     inkscape:deskcolor="#d1d1d1"
     inkscape:zoom="12.860505"
     inkscape:cx="-6.5705042"
     inkscape:cy="16.329064"
     inkscape:current-layer="svg2" />
  <metadata
     id="metadata1">
    <rdf:RDF>
      <cc:Work
         rdf:about="">
        <dc:format>image/svg+xml</dc:format>
        <dc:type
           rdf:resource="http://purl.org/dc/dcmitype/StillImage" />
        <dc:title />
      </cc:Work>
    </rdf:RDF>
  </metadata>
  <g
     fill="#363636"
     stroke-linecap="round"
     stroke-linejoin="round"
     stroke-width="2.22333"
     style="paint-order:stroke fill markers"
     aria-label="î§"
     id="g1"
     transform="matrix(0.9,0,0,0.9,0.5002775,0.8)">
    <path
       d="m 8.8328,5.1704 c 0.37518,0.37518 0.66438,0.80768 0.86761,1.2975 0.20323,0.48982 0.30484,1.0005 0.30484,1.532 0,0.53151 -0.10161,1.0422 -0.30484,1.532 -0.20323,0.48982 -0.49243,0.92232 -0.86761,1.2975 L 8.12933,10.12593 C 8.41072,9.84454 8.62697,9.52147 8.77808,9.15671 8.92919,8.78674 9.00475,8.40114 9.00475,7.99991 9.00475,7.59867 8.929193,7.21567 8.77808,6.85091 8.62697,6.48094 8.41072,6.15526 8.12933,5.87387 Z M 5.292,1.997 H 6.00328 V 14.003 H 5.292 L 2.2905,11.0015 H 3e-4 V 4.9986 H 2.2905 Z M 5.0028,3.7088 2.7126,5.999 H 1.0008 v 4.0019 h 1.7118 l 2.2902,2.2902 z"
       fill="currentColor"
       class="ColorScheme-Text"
       stroke-width="2.22333"
       id="path1" />
  </g>
  <path
     d="m 12.26957,1.63362 c 0.422082,0.422082 0.794925,0.879345 1.11852,1.37178 0.328284,0.492426 0.60498,1.01061 0.830088,1.55466 0.225108,0.539325 0.393939,1.0998 0.506493,1.68129 0.117243,0.576846 0.175869,1.16307 0.175869,1.75869 0,0.595602 -0.05863,1.18413 -0.175869,1.76571 -0.112554,0.576846 -0.281385,1.13724 -0.506493,1.68129 -0.225108,0.539325 -0.501804,1.05525 -0.830088,1.54764 -0.323595,0.492426 -0.696429,0.94968 -1.11852,1.37178 l -0.633123,-0.633123 c 0.379872,-0.379872 0.715185,-0.790245 1.00593,-1.23111 0.295461,-0.445527 0.544014,-0.91215 0.745677,-1.39986 0.201663,-0.48771 0.354078,-0.99189 0.457254,-1.51245 0.107865,-0.525258 0.161802,-1.05525 0.161802,-1.58985 0,-0.534636 -0.05394,-1.06227 -0.161802,-1.58283 C 13.742132,5.891979 13.589717,5.385477 13.388054,4.897767 13.186391,4.41003 12.937838,3.945747 12.642377,3.504927 12.351614,3.0594 12.016301,2.646687 11.636447,2.266797 Z M 10.36319,3.54 c 0.295461,0.295461 0.555741,0.616698 0.780849,0.96372 0.229797,0.342351 0.422082,0.703467 0.576846,1.08333 0.159453,0.379872 0.279045,0.773802 0.358767,1.18179 0.08441,0.408015 0.126621,0.818379 0.126621,1.23111 0,0.417393 -0.04221,0.830097 -0.126621,1.23813 -0.07973,0.403317 -0.199314,0.794907 -0.358767,1.17477 -0.154764,0.379872 -0.347049,0.743319 -0.576846,1.09035 -0.225108,0.342351 -0.485388,0.661257 -0.780849,0.9567 L 9.7230377,11.819748 c 0.5064933,-0.506493 0.8957433,-1.09035 1.1677503,-1.75167 0.276696,-0.661257 0.415044,-1.35063 0.415044,-2.0682 0,-0.71757 -0.138348,-1.40697 -0.415044,-2.0682 -0.272007,-0.661257 -0.661257,-1.24515 -1.1677503,-1.75167 z"
     fill="currentColor"
     class="ColorScheme-Text"
     opacity="0.35"
     stroke-width="1.8009"
     style="paint-order:stroke fill markers"
     id="path2" />
</svg>
