<?xml version="1.0" encoding="UTF-8" standalone="no"?>
<svg
   width="16"
   height="16"
   version="1.1"
   viewBox="0 0 16 16"
   id="svg1"
   sodipodi:docname="user-desktop-symbolic.svg"
   inkscape:version="1.3.2 (091e20ef0f, 2023-11-25, custom)"
   xmlns:inkscape="http://www.inkscape.org/namespaces/inkscape"
   xmlns:sodipodi="http://sodipodi.sourceforge.net/DTD/sodipodi-0.dtd"
   xmlns="http://www.w3.org/2000/svg"
   xmlns:svg="http://www.w3.org/2000/svg">
  <sodipodi:namedview
     id="namedview1"
     pagecolor="#ffffff"
     bordercolor="#111111"
     borderopacity="1"
     inkscape:showpageshadow="0"
     inkscape:pageopacity="0"
     inkscape:pagecheckerboard="1"
     inkscape:deskcolor="#d1d1d1"
     inkscape:zoom="36.375"
     inkscape:cx="7.9862543"
     inkscape:cy="8"
     inkscape:current-layer="svg1" />
  <defs
     id="defs1">
    <style
       id="current-color-scheme"
       type="text/css">.ColorScheme-Text { color:#363636; }</style>
  </defs>
  <path
     d="m2 1c-1.108 0-2 0.892-2 2v9c0 1.108 0.892 2 2 2h12c1.108 0 2-0.892 2-2v-9c0-1.108-0.892-2-2-2h-12zm0 1h12c0.554 0 1 0.446 1 1h-14c0-0.554 0.446-1 1-1zm-1 2h14v8c0 0.554-0.446 1-1 1h-12c-0.554 0-1-0.446-1-1v-8zm3 6c-0.554 0-1 0.446-1 1s0.446 1 1 1h8c0.554 0 1-0.446 1-1s-0.446-1-1-1h-8z"
     style="fill:currentColor"
     class="ColorScheme-Text"
     id="path1" />
</svg>
