<?xml version="1.0" encoding="UTF-8" standalone="no"?>
<svg
   viewBox="0 0 48 48"
   version="1.1"
   id="svg1"
   sodipodi:docname="start-here-kde.svg"
   inkscape:version="1.3.2 (091e20ef0f, 2023-11-25, custom)"
   xmlns:inkscape="http://www.inkscape.org/namespaces/inkscape"
   xmlns:sodipodi="http://sodipodi.sourceforge.net/DTD/sodipodi-0.dtd"
   xmlns="http://www.w3.org/2000/svg"
   xmlns:svg="http://www.w3.org/2000/svg">
  <defs
     id="defs1">
    <style
       id="current-color-scheme"
       type="text/css">
          .ColorScheme-Text {
          color:#181612;
          }
          .ColorScheme-Background{
          color:#d4d0c8;
          }
          .ColorScheme-Highlight{
          color:#3a6ea5;
          }
          .ColorScheme-ViewText {
          color:#181612;
          }
          .ColorScheme-ViewBackground{
          color:#ffffff;
          }
          .ColorScheme-ViewHover {
          color:#a3c6ee;
          }
          .ColorScheme-ViewFocus{
          color:#fafafa;
          }
          .ColorScheme-ButtonText {
          color:#181612;
          }
          .ColorScheme-ButtonBackground{
          color:#d4d0c8;
          }
          .ColorScheme-ButtonHover {
          color:#84827d;
          }
          .ColorScheme-ButtonFocus{
          color:#363e41;
          }
      </style>
  </defs>
  <sodipodi:namedview
     id="namedview1"
     pagecolor="#ffffff"
     bordercolor="#111111"
     borderopacity="1"
     inkscape:showpageshadow="0"
     inkscape:pageopacity="0"
     inkscape:pagecheckerboard="1"
     inkscape:deskcolor="#d1d1d1"
     inkscape:zoom="34.294679"
     inkscape:cx="34.917953"
     inkscape:cy="44.117631"
     inkscape:current-layer="svg1"
     showgrid="true">
    <inkscape:grid
       id="grid1"
       units="px"
       originx="0"
       originy="0"
       spacingx="1"
       spacingy="1"
       empcolor="#0099e5"
       empopacity="0.30196078"
       color="#0099e5"
       opacity="0.14902"
       empspacing="5"
       dotted="false"
       gridanglex="30"
       gridanglez="30"
       visible="true" />
  </sodipodi:namedview>
  <path
     d="M 28.473918,4.1518986 21.301,4.8385677 V 34.374508 l 7.09706,-1.068475 V 20.713255 l 9.539832,13.967052 7.478849,-2.366418 -9.768566,-13.432211 9.84509,-12.6691597 -7.63123,-1.754532 -9.463808,12.6686327 z M 12.214644,11.349322 c -0.081,0.0085 -0.159224,0.04422 -0.220052,0.105276 l -2.8152182,2.814725 c -0.118368,0.118716 -0.140664,0.302771 -0.0534,0.446503 l 3.2960352,5.428554 c -0.5846,0.982808 -1.053148,2.042472 -1.38802,3.160304 l -6.0510658,1.25864 c -0.1683542,0.03487 -0.2896576,0.18404 -0.2896576,0.356804 v 3.980756 c 0,0.168376 0.1151796,0.314167 0.2774039,0.35337 l 5.8731785,1.435586 c 0.313198,1.294644 0.798534,2.521954 1.439986,3.649973 l -3.3995678,5.183966 c -0.094848,0.144905 -0.075024,0.335731 0.04752,0.457762 l 2.8142188,2.814725 c 0.118368,0.118032 0.303145,0.141164 0.447489,0.05442 l 5.327172,-3.235337 c 1.04641,0.603824 2.174849,1.079019 3.367555,1.401264 l 1.24294,5.976049 c 0.03498,0.169397 0.184662,0.289675 0.356314,0.289675 h 3.98125 c 0.167373,0 0.31343,-0.114288 0.353378,-0.278415 l 1.463992,-5.988381 c 1.229469,-0.331802 2.392251,-0.826352 3.464254,-1.457628 L 37,43 c 0.144344,0.09508 0.335255,0.07602 0.457776,-0.04643 l 2.815219,-2.814708 c 0.119088,-0.119052 0.140416,-0.303128 0.05291,-0.446486 l -1.916435,-3.158347 -0.620011,0.196064 c -0.09038,0.02857 -0.188942,-0.0052 -0.24211,-0.08384 0,0 -1.222368,-1.789398 -2.801047,-4.09998 -1.887258,3.693513 -5.726797,6.223647 -10.160689,6.223647 -6.299482,0 -11.406587,-5.107295 -11.406587,-11.407085 0,-4.634311 2.764204,-8.619898 6.732283,-10.405282 v -2.942775 c -0.722192,0.252649 -1.420377,0.557275 -2.083488,0.918501 -4.84e-4,-4.43e-4 -9.7e-4,-0.0017 -0.0029,-0.0034 L 12.45175,11.405802 c -0.07236,-0.04728 -0.156239,-0.06616 -0.237208,-0.05783 z"
     id="path2"
     style="fill:currentColor;fill-opacity:1;stroke-width:1;opacity:0.25"
     class="ColorScheme-ButtonHover" />
  <path
     d="M 27.380652,2.4637486 20.207734,3.1504177 V 32.686358 l 7.09706,-1.068475 V 19.025105 l 9.539832,13.967052 7.478849,-2.366418 -9.768566,-13.432211 9.84509,-12.6691597 -7.63123,-1.754532 -9.463808,12.6686327 z M 11.121378,9.6611724 c -0.081,0.00852 -0.159224,0.04422 -0.220052,0.105276 L 8.0861078,12.581173 c -0.118368,0.118716 -0.140664,0.302771 -0.0534,0.446503 l 3.2960352,5.428554 c -0.5846,0.982808 -1.053148,2.042472 -1.3880196,3.160304 l -6.0510662,1.25864 c -0.1683542,0.03487 -0.2896576,0.18404 -0.2896576,0.356804 v 3.980756 c 0,0.168376 0.1151796,0.314167 0.2774039,0.35337 l 5.8731787,1.435586 c 0.3131978,1.294644 0.7985338,2.521954 1.4399858,3.649973 l -3.3995678,5.183966 c -0.094848,0.144905 -0.075024,0.335731 0.04752,0.457762 l 2.8142188,2.814725 c 0.118368,0.118032 0.303145,0.141164 0.447489,0.05442 L 16.4274,37.927199 c 1.04641,0.603824 2.174849,1.079019 3.367555,1.401264 l 1.24294,5.976049 c 0.03498,0.169397 0.184662,0.289675 0.356314,0.289675 h 3.98125 c 0.167373,0 0.31343,-0.114288 0.353378,-0.278415 l 1.463992,-5.988381 c 1.229469,-0.331802 2.392251,-0.826352 3.464254,-1.457628 l 5.249651,3.442087 c 0.144344,0.09508 0.335255,0.07602 0.457776,-0.04643 l 2.815219,-2.814708 c 0.119088,-0.119052 0.140416,-0.303128 0.05291,-0.446486 l -1.916435,-3.158347 -0.620011,0.196064 c -0.09038,0.02857 -0.188942,-0.0052 -0.24211,-0.08384 0,0 -1.222368,-1.789398 -2.801047,-4.09998 -1.887258,3.693513 -5.726797,6.223647 -10.160689,6.223647 -6.299482,0 -11.406587,-5.107295 -11.406587,-11.407085 0,-4.634311 2.764204,-8.619898 6.732283,-10.405282 v -2.942775 c -0.722192,0.252649 -1.420377,0.557275 -2.083488,0.918501 -4.84e-4,-4.43e-4 -9.7e-4,-0.0017 -0.0029,-0.0034 L 11.358484,9.7176516 c -0.07236,-0.04728 -0.156239,-0.066156 -0.237208,-0.057828 z"
     id="path1"
     fill="currentColor"
     class="ColorScheme-Highlight" />
</svg>
